<svg width="245" height="86" viewBox="0 0 245 86" fill="none" xmlns="http://www.w3.org/2000/svg">
<g clip-path="url(#clip0_296_1634)">
<path d="M240.609 62.337H244.864L240.209 77.5808C239.543 79.752 238.751 81.1729 237.839 81.8478C236.943 82.5196 235.544 82.8555 233.642 82.8555H232.899V79.2254H233.783C234.506 79.2254 235.05 79.0902 235.41 78.8216C235.773 78.5337 236.105 77.9267 236.411 77.0044L231.5 62.337H235.753L238.267 70.5793L240.609 62.337Z" fill="white"/>
<path d="M225.56 62.3368H229.642V82.5088H225.674V77.5532C225.712 76.7256 225.76 75.4973 225.817 73.8633C225.893 72.2312 225.95 71.0103 225.988 70.2033L225.846 70.1454L224.046 75.4499L223.047 78.1876H219.049L218.05 75.4499L216.251 70.1454L216.108 70.2033C216.146 71.0103 216.194 72.2312 216.251 73.8633C216.308 75.4973 216.356 76.7256 216.394 77.5532V82.5088H212.453V62.3368H216.537L219.677 69.9727C220.382 71.7401 220.82 72.9129 220.991 73.4894H221.105C221.277 72.9129 221.715 71.7401 222.419 69.9727L225.56 62.3368Z" fill="white"/>
<path d="M203.156 78.6182H209.696V82.5088H199.102V62.3362H209.41V66.2267H203.156V70.4058H208.839V74.1512H203.156V78.6182Z" fill="white"/>
<path d="M195.182 78.6185H197.039V85.9385H193.041V82.5091H175.422V62.3365H179.42V78.6185H183.303V62.3365H187.301V78.6185H191.185V62.3365H195.182V78.6185Z" fill="white"/>
<path d="M166.133 72.0779H167.818V66.2267H166.133C164.667 66.2267 163.935 67.207 163.935 69.1651C163.935 71.1076 164.667 72.0779 166.133 72.0779ZM158.766 82.5088L162.536 75.0735C160.689 73.9605 159.765 71.99 159.765 69.1651C159.765 67.0138 160.317 65.3418 161.422 64.1515C162.545 62.9407 164.097 62.3362 166.076 62.3362H171.873V82.5088H167.818V75.9659H166.39L163.192 82.5088H158.766Z" fill="white"/>
<path d="M148.65 75.9667C148.65 77.9092 149.412 78.8795 150.935 78.8795C152.458 78.8795 153.219 77.9092 153.219 75.9667V68.8798C153.219 66.9374 152.458 65.9671 150.935 65.9671C149.412 65.9671 148.65 66.9374 148.65 68.8798V75.9667ZM155.704 81.0407C154.561 82.2516 152.972 82.8555 150.935 82.8555C148.898 82.8555 147.309 82.2516 146.166 81.0407C145.024 79.8099 144.453 78.1199 144.453 75.9667V68.8798C144.453 66.7267 145.024 65.0472 146.166 63.8364C147.309 62.6056 148.898 61.9911 150.935 61.9911C152.972 61.9911 154.561 62.6056 155.704 63.8364C156.846 65.0472 157.417 66.7267 157.417 68.8798V75.9667C157.417 78.1199 156.846 79.8099 155.704 81.0407Z" fill="white"/>
<path d="M142.822 62.3368V66.2274H138.909V82.5088H134.74V66.2274H130.828V62.3368H142.822Z" fill="white"/>
<path d="M123.387 82.8555C121.426 82.8555 119.902 82.299 118.818 81.1835C117.752 80.0505 117.219 78.4358 117.219 76.3425V68.5041C117.219 66.3908 117.761 64.7662 118.847 63.6332C119.932 62.5003 121.454 61.9338 123.415 61.9338C125.414 61.9338 126.956 62.5003 128.041 63.6332C129.126 64.7487 129.707 66.3709 129.783 68.5041H125.728C125.671 67.5817 125.461 66.9199 125.1 66.5161C124.738 66.1123 124.167 65.9097 123.387 65.9097C122.092 65.9097 121.445 66.7741 121.445 68.5041V76.3425C121.445 78.0326 122.092 78.8795 123.387 78.8795C124.167 78.8795 124.748 78.6764 125.129 78.2732C125.509 77.8693 125.728 77.225 125.785 76.3425H129.84C129.802 78.4558 129.221 80.0704 128.098 81.1835C126.994 82.299 125.423 82.8555 123.387 82.8555Z" fill="white"/>
<path d="M108.006 75.2767H110.632L110.176 72.9703C109.909 71.4914 109.643 69.6462 109.376 67.4376H109.262C108.938 70.0301 108.672 71.8747 108.463 72.9703L108.006 75.2767ZM112.089 82.5088L111.432 79.1673H107.206L106.549 82.5088H102.352L107.149 62.3368H111.49L116.286 82.5088H112.089Z" fill="white"/>
<path d="M96.4223 62.3372H100.506V82.5091H96.4223V74.2974H92.3102V82.5091L88.2266 82.5098V62.3372H92.3102V70.4068H96.4223V62.3372Z" fill="white"/>
<path d="M78.4688 76.7734V73.4319H85.6079V76.7734H78.4688Z" fill="white"/>
<path d="M67.6504 75.9667C67.6504 77.9092 68.4118 78.8795 69.9352 78.8795C71.458 78.8795 72.2194 77.9092 72.2194 75.9667V68.8798C72.2194 66.9374 71.458 65.9671 69.9352 65.9671C68.4118 65.9671 67.6504 66.9374 67.6504 68.8798V75.9667ZM74.7037 81.0407C73.5613 82.2516 71.9718 82.8555 69.9352 82.8555C67.898 82.8555 66.3085 82.2516 65.1661 81.0407C64.0237 79.8099 63.4531 78.1199 63.4531 75.9667V68.8798C63.4531 66.7267 64.0237 65.0472 65.1661 63.8364C66.3085 62.6056 67.898 61.9911 69.9352 61.9911C71.9718 61.9911 73.5613 62.6056 74.7037 63.8364C75.8461 65.0472 76.4173 66.7267 76.4173 68.8798V75.9667C76.4173 78.1199 75.8461 79.8099 74.7037 81.0407Z" fill="white"/>
<path d="M60.4875 62.3368V82.5088H56.4329V66.2274H52.3209V82.5088H48.2656V62.3368H60.4875Z" fill="white"/>
<path d="M33.2421 78.6182H39.781V82.5088H29.1875V62.3362H39.4957V66.2267H33.2421V70.4058H38.9245V74.1512H33.2421V78.6182ZM38.2397 59.7144C37.9346 60.0204 37.516 60.1756 36.983 60.1756C36.4495 60.1756 36.0216 60.0204 35.698 59.7144C35.3935 59.386 35.241 58.9548 35.241 58.4157C35.241 57.8791 35.3935 57.456 35.698 57.15C36.0216 56.8216 36.4495 56.6583 36.983 56.6583C37.516 56.6583 37.9346 56.8216 38.2397 57.15C38.5626 57.456 38.7251 57.8791 38.7251 58.4157C38.7251 58.9548 38.5626 59.386 38.2397 59.7144ZM33.6132 59.7144C33.3088 60.0204 32.8901 60.1756 32.3566 60.1756C31.8237 60.1756 31.3957 60.0204 31.0715 59.7144C30.7671 59.386 30.6152 58.9548 30.6152 58.4157C30.6152 57.8791 30.7671 57.456 31.0715 57.15C31.3957 56.8216 31.8237 56.6583 32.3566 56.6583C32.8901 56.6583 33.3088 56.8216 33.6132 57.15C33.9368 57.456 34.0986 57.8791 34.0986 58.4157C34.0986 58.9548 33.9368 59.386 33.6132 59.7144Z" fill="white"/>
<path d="M20.4021 82.8555C18.4415 82.8555 16.9181 82.299 15.8331 81.1835C14.7673 80.0505 14.2344 78.4358 14.2344 76.3425V68.5041C14.2344 66.3908 14.7766 64.7662 15.8622 63.6332C16.9471 62.5003 18.4699 61.9338 20.4305 61.9338C22.4294 61.9338 23.9714 62.5003 25.0564 63.6332C26.142 64.7487 26.7224 66.3709 26.7984 68.5041H22.7438C22.687 67.5817 22.477 66.9199 22.1157 66.5161C21.7539 66.1123 21.1827 65.9097 20.4021 65.9097C19.1078 65.9097 18.4607 66.7741 18.4607 68.5041V76.3425C18.4607 78.0326 19.1078 78.8795 20.4021 78.8795C21.1827 78.8795 21.7631 78.6764 22.1442 78.2732C22.5245 77.8693 22.7438 77.225 22.8012 76.3425H26.8558C26.8175 78.4558 26.2371 80.0704 25.1138 81.1835C24.0097 82.299 22.4393 82.8555 20.4021 82.8555Z" fill="white"/>
<path d="M5.58936 78.6491C7.20726 78.6491 8.01621 77.9169 8.01621 76.458C8.01621 74.9792 7.23628 74.2394 5.67458 74.2394H4.04742V78.6491H5.58936ZM5.50353 66.1978H4.04742V70.4068H5.64618C6.80773 70.4068 7.38819 69.6845 7.38819 68.2456C7.38819 66.8796 6.76018 66.1978 5.50353 66.1978ZM9.81565 72.1941C10.5579 72.6154 11.1384 73.2118 11.5577 73.9789C11.9763 74.7486 12.1857 75.583 12.1857 76.486C12.1857 78.2733 11.6336 79.7247 10.5295 80.8378C9.44452 81.9533 8.03535 82.5098 6.30321 82.5098H-0.0078125V62.3372H6.21738C7.75932 62.3372 9.02523 62.8662 10.0151 63.9213C11.005 64.9795 11.5002 66.363 11.5002 68.073C11.5002 68.8401 11.3477 69.5998 11.0433 70.3489C10.7388 71.0986 10.3294 71.713 9.81565 72.1941Z" fill="white"/>
<path d="M142.841 50.5977C141.225 50.5977 139.97 50.139 139.076 49.2217C138.197 48.2863 137.758 46.9576 137.758 45.2308V38.7708C137.758 37.0284 138.205 35.6897 139.099 34.7568C139.994 33.822 141.249 33.3559 142.865 33.3559C144.512 33.3559 145.783 33.822 146.677 34.7568C147.572 35.6748 148.051 37.0134 148.113 38.7708H144.771C144.724 38.0111 144.552 37.4646 144.253 37.1312C143.955 36.8003 143.485 36.632 142.841 36.632C141.774 36.632 141.241 37.3468 141.241 38.7708V45.2308C141.241 46.6242 141.774 47.3209 142.841 47.3209C143.485 47.3209 143.963 47.1558 144.277 46.8224C144.591 46.489 144.771 45.9599 144.819 45.2308H148.16C148.129 46.9726 147.65 48.3012 146.724 49.2217C145.815 50.139 144.52 50.5977 142.841 50.5977Z" fill="white"/>
<path d="M130.175 44.353H132.34L131.964 42.4529C131.745 41.2321 131.525 39.7128 131.305 37.8906H131.211C130.944 40.0287 130.724 41.5506 130.552 42.4529L130.175 44.353ZM133.541 50.3145L133 47.5593H129.517L128.975 50.3145H125.516L129.47 33.6865H133.047L137.001 50.3145H133.541Z" fill="white"/>
<path d="M120.622 33.6865H123.987V50.3145H120.622V43.5435H117.233V50.3145H113.867V33.6865H117.233V40.3372H120.622V33.6865Z" fill="white"/>
<path d="M104.195 33.6868H107.702L103.866 46.2509C103.317 48.0407 102.666 49.2142 101.912 49.7682C101.175 50.3222 100.022 50.5977 98.453 50.5977H97.841V47.607H98.5703C99.1668 47.607 99.6139 47.4942 99.9122 47.2736C100.21 47.0355 100.485 46.537 100.736 45.7773L96.6875 33.6868H100.194L102.266 40.4802L104.195 33.6868Z" fill="white"/>
<path d="M29.9661 20.1292L33.1333 18.8934L39.1282 34.5211L35.961 35.7568L33.5199 29.3941L30.3311 30.638L32.7715 37.0001L29.6049 38.2334L23.6094 22.6057L26.7766 21.3724L29.1744 27.6217L32.3639 26.3785L29.9661 20.1292Z" fill="white"/>
<path d="M42.1006 33.8096L36.8906 17.8989L40.0023 16.8632L41.2083 20.5463C41.6918 22.0226 42.4273 24.8026 42.8342 26.8859L42.9238 26.9308C42.98 25.8028 42.9682 24.6219 43.0769 23.5014L43.8136 15.595L46.9475 14.5524L52.1581 30.463L49.0458 31.4982L47.9886 28.2694C47.4082 26.4971 46.569 23.474 46.1392 21.4006L46.049 21.3533C46.0002 22.8072 46.0033 24.2686 45.8786 25.72L45.2351 32.767L42.1006 33.8096Z" fill="white"/>
<path d="M67.0104 26.6319L62.5822 21.3323L62.1604 22.7638L63.4844 27.6097L60.3252 28.4871L59.0012 23.6412L57.9113 22.6285L56.7998 29.4668L53.228 30.457L55.419 20.2673L49.25 14.1831L52.9125 13.1654L56.286 16.9482L57.6204 18.5878L55.9118 12.3328L59.0716 11.4554L60.7797 17.7103L61.0934 15.6121L62.0703 10.6234L65.7334 9.60826L63.5239 18.0157L70.5815 25.6392L67.0104 26.6319Z" fill="white"/>
<path d="M76.5134 8.0192L79.8443 7.35239L83.0782 23.7871L79.7473 24.4539L78.4308 17.7634L75.0764 18.4327L76.3936 25.1232L73.0621 25.79L69.8281 9.35532L73.159 8.68851L74.4527 15.2638L77.8071 14.592L76.5134 8.0192Z" fill="white"/>
<path d="M85.8347 23.6514L83.4141 7.07393L86.656 6.59221L87.2161 10.4279C87.4409 11.9697 87.6916 14.8351 87.7373 16.9558L87.8182 17.0181C88.0652 15.9151 88.2554 14.7497 88.553 13.6666L90.626 6.0033L93.8921 5.5197L96.3128 22.0946L93.0708 22.5757L92.5793 19.2143C92.31 17.3665 91.9976 14.2431 91.9284 12.1249L91.8475 12.065C91.5511 13.489 91.3053 14.9274 90.9354 16.3364L89.1002 23.1653L85.8347 23.6514Z" fill="white"/>
<path d="M99.5041 22.0898L97.9609 5.40709L101.224 5.09861L101.581 8.96176C101.724 10.511 101.824 13.3864 101.757 15.5071L101.835 15.5719C102.14 14.4869 102.391 13.3309 102.745 12.2659L105.22 4.72532L108.506 4.41435L110.049 21.0971L106.786 21.4056L106.473 18.021C106.302 16.1615 106.155 13.0249 106.197 10.9067L106.12 10.8419C105.748 12.2478 105.427 13.6718 104.983 15.0609L102.791 21.7814L99.5041 22.0898ZM103.197 3.23092C101.519 3.38921 100.117 2.41641 99.874 0.563669L101.931 0.371103C101.988 0.989929 102.494 1.30339 102.991 1.25603C103.488 1.20805 103.927 0.807335 103.87 0.187885L105.927 -0.00530434C106.034 1.93032 104.829 3.07823 103.197 3.23092Z" fill="white"/>
<path d="M126.283 4.28918L129.678 4.24181L129.907 20.9944L126.512 21.0423L126.419 14.2209L123 14.2689L123.092 21.0897L119.697 21.1377L119.469 4.38203L122.864 4.33654L122.955 11.0377L126.374 10.9897L126.283 4.28918Z" fill="white"/>
<path d="M137.559 18.5178C138.817 18.5626 139.487 17.7481 139.542 16.169L139.745 10.2854C139.8 8.70629 139.188 7.84629 137.931 7.80142C136.673 7.75842 136.003 8.57355 135.948 10.1502L135.745 16.0362C135.69 17.6154 136.302 18.4754 137.559 18.5178ZM137.445 21.8194C134.075 21.7016 132.131 19.5005 132.256 15.9135L132.46 10.0274C132.584 6.43975 134.675 4.38199 138.045 4.49977C141.415 4.62004 143.359 6.81865 143.234 10.4082L143.03 16.2917C142.906 19.8813 140.815 21.9372 137.445 21.8194Z" fill="white"/>
<path d="M150.733 19.4858C152.058 19.6036 152.798 19.0421 152.901 17.8512C153.006 16.6353 152.373 15.9536 151.12 15.8433L149.771 15.7255L149.456 19.373L150.733 19.4858ZM151.554 9.17765L150.347 9.07233L150.046 12.5547L151.371 12.67C152.317 12.7523 152.867 12.1758 152.969 11.008C153.066 9.88746 152.642 9.27299 151.554 9.17765ZM154.697 14.4523C155.865 15.2768 156.483 16.6758 156.353 18.1771C156.095 21.1578 153.887 22.9825 151.048 22.732L145.82 22.2733L147.265 5.5806L152.422 6.03429C154.977 6.25988 156.633 8.32824 156.388 11.1656C156.278 12.4288 155.642 13.7176 154.697 14.4523Z" fill="white"/>
<path d="M168.717 8.28492L168.285 11.4862L163.321 10.807L161.513 24.208L158.172 23.7493L160.411 7.14698L168.717 8.28492Z" fill="white"/>
<path d="M173.863 23.3481C175.103 23.5687 175.879 22.857 176.153 21.3028L177.174 15.504C177.447 13.9473 176.961 13.01 175.722 12.7894C174.483 12.5663 173.706 13.278 173.433 14.8347L172.412 20.6335C172.138 22.1877 172.624 23.125 173.863 23.3481ZM173.291 26.5993C169.97 26.0054 168.352 23.5538 168.975 20.0165L169.996 14.2209C170.618 10.6837 172.975 8.94124 176.295 9.53576C179.615 10.1297 181.233 12.5838 180.61 16.1185L179.59 21.9166C178.968 25.4514 176.611 27.1938 173.291 26.5993Z" fill="white"/>
<path d="M187.894 20.8613C189.213 21.1673 190.095 20.513 190.452 18.9513C190.816 17.3646 190.309 16.3868 188.99 16.0809L187.625 15.7624L186.53 20.5429L187.894 20.8613ZM189.758 12.9425C193.113 13.7246 194.632 16.2385 193.831 19.7383C193.034 23.2126 190.574 24.8018 187.219 24.0196L185.808 23.6912L184.606 28.9385L181.32 28.1738L185.061 11.8494L189.758 12.9425Z" fill="white"/>
<path d="M198.967 29.8187C200.179 30.1645 201.021 29.5326 201.446 28.0114L203.029 22.3435C203.454 20.8242 203.063 19.8414 201.851 19.498C200.639 19.1547 199.797 19.7866 199.372 21.3053L197.789 26.9732C197.363 28.495 197.756 29.4753 198.967 29.8187ZM198.079 33C194.833 32.0771 193.463 29.4753 194.428 26.021L196.012 20.3531C196.978 16.8962 199.493 15.3968 202.74 16.3198C205.985 17.2396 207.355 19.8414 206.389 23.2982L204.806 28.9661C203.84 32.4205 201.324 33.9199 198.079 33Z" fill="white"/>
<path d="M213.822 34.6542L217.075 24.8228L214.664 24.0127L212.989 28.4697C212.275 30.4004 211.329 32.1247 210.015 33.3755L213.822 34.6542ZM216.975 35.7149L218.44 36.206L216.546 41.9287L213.37 40.8612L214.264 38.159L207.438 35.8651L206.545 38.5672L203.391 37.5072L205.284 31.7838L206.298 32.1247C208.198 31.0746 209.43 28.6355 210.241 26.4874L212.675 19.9619L221.235 22.8398L216.975 35.7149Z" fill="white"/>
<path d="M187.054 42.7197H164.789V41.0683H187.054V42.7197Z" fill="white"/>
<path d="M80.0621 42.7197H57.7969V41.0683H80.0621V42.7197Z" fill="white"/>
</g>
<defs>
<clipPath id="clip0_296_1634">
<rect width="245" height="86" fill="white"/>
</clipPath>
</defs>
</svg>
