<svg xmlns="http://www.w3.org/2000/svg" xmlns:xlink="http://www.w3.org/1999/xlink">
    <defs>
        <style>
            .sprite-symbol-usage {display: none;}
            .sprite-symbol-usage:target {display: inline;}
        </style>
        <symbol fill="none" viewBox="0 0 24 24" id="arrow-link">
            <path d="M 10.005859 6.25 A 0.750075 0.750075 0 1 0 9.9941406 7.75 L 15.154297 7.7851562 L 6.5195312 16.419922 A 0.75061078 0.75061078 0 1 0 7.5820312 17.480469 L 16.212891 8.8476562 L 16.25 14.005859 A 0.750075 0.750075 0 1 0 17.75 13.994141 L 17.699219 7.140625 A 0.750075 0.750075 0 0 0 16.935547 6.2929688 A 0.750075 0.750075 0 0 0 16.869141 6.2988281 L 16.861328 6.2988281 L 10.005859 6.25 z " fill="currentColor" />
        </symbol>
        <symbol viewBox="0 0 20 20" fill="none" id="footer-dzen">
            <path d="M18 10.0857V9.91429C14.4571 9.8 12.84 9.71429 11.5429 8.45714C10.2857 7.16 10.1943 5.54286 10.0857 2H9.91429C9.8 5.54286 9.71429 7.16 8.45714 8.45714C7.16 9.71429 5.54286 9.80571 2 9.91429V10.0857C5.54286 10.2 7.16 10.2857 8.45714 11.5429C9.71429 12.84 9.80571 14.4571 9.91429 18H10.0857C10.2 14.4571 10.2857 12.84 11.5429 11.5429C12.84 10.2857 14.4571 10.1943 18 10.0857Z" fill="currentColor" />
        </symbol>
        <symbol viewBox="0 0 20 20" fill="none" id="footer-telegram">
            <path d="M16.0279 4.53629L3.27015 9.43225C2.75676 9.66023 2.58311 10.1168 3.14603 10.3646L6.41897 11.3997L14.3324 6.53263C14.7645 6.22707 15.2069 6.30855 14.8262 6.64466L8.02962 12.7688L7.81611 15.3606C8.01387 15.7608 8.37596 15.7626 8.60692 15.5637L10.4873 13.7931L13.7078 16.193C14.4557 16.6337 14.8627 16.3493 15.0236 15.5416L17.136 5.58767C17.3553 4.59343 16.9813 4.15536 16.0279 4.53629Z" fill="currentColor" />
        </symbol>
        <symbol viewBox="0 0 20 20" fill="none" id="footer-vk">
            <path d="M10.7145 15.1997C5.24792 15.1997 2.12992 11.446 2 5.19971H4.73829C4.82823 9.78429 6.84692 11.7262 8.44592 12.1266V5.19971H11.0244V9.15366C12.6034 8.98349 14.2622 7.18169 14.8218 5.19971H17.4003C16.9705 7.64215 15.1717 9.44395 13.8925 10.1847C15.1717 10.7853 17.2205 12.3569 18 15.1997H15.1617C14.5521 13.2978 13.0332 11.8263 11.0244 11.6261V15.1997H10.7145Z" fill="currentColor" />
        </symbol>
        <symbol viewBox="0 0 20 20" fill="none" id="footer-youtube">
            <path d="M17.6344 6.2734C18 7.6099 18 10.3999 18 10.3999C18 10.3999 18 13.1899 17.6344 14.5264C17.4312 15.2652 16.8368 15.8464 16.084 16.0429C14.7168 16.3999 10 16.3999 10 16.3999C10 16.3999 5.2856 16.3999 3.916 16.0429C3.16 15.8434 2.5664 15.2629 2.3656 14.5264C2 13.1899 2 10.3999 2 10.3999C2 10.3999 2 7.6099 2.3656 6.2734C2.5688 5.53465 3.1632 4.9534 3.916 4.7569C5.2856 4.3999 10 4.3999 10 4.3999C10 4.3999 14.7168 4.3999 16.084 4.7569C16.84 4.9564 17.4336 5.5369 17.6344 6.2734ZM8.4 13.0249L13.2 10.3999L8.4 7.7749V13.0249Z" fill="currentColor" />
        </symbol>
        <symbol viewBox="0 0 36 36" fill="none" id="riverstart">
            <path fill-rule="evenodd" clip-rule="evenodd" d="M0 16.7282V34.1052C-2.93863e-06 34.6066 0.198621 35.0876 0.552359 35.4427C0.906098 35.7979 1.38611 35.9983 1.88722 36H19.2614C19.5258 36.0014 19.7845 35.9239 20.0047 35.7774C20.2248 35.631 20.3963 35.4222 20.4973 35.1777C20.5982 34.9332 20.624 34.6642 20.5714 34.4049C20.5187 34.1457 20.3901 33.9081 20.2018 33.7224L2.27635 15.7808C2.08916 15.5952 1.85128 15.4692 1.59266 15.4185C1.33403 15.3678 1.06621 15.3948 0.822886 15.4961C0.579562 15.5974 0.371606 15.7684 0.225184 15.9876C0.0787622 16.2068 0.000415421 16.4645 0 16.7282ZM28.9569 0C29.2204 0.00219379 29.4775 0.0819247 29.696 0.229256C29.9145 0.376588 30.0848 0.585001 30.1858 0.828529C30.2868 1.07206 30.3138 1.33992 30.2637 1.59875C30.2136 1.85758 30.0884 2.09592 29.9038 2.28407L23.3212 8.85724C23.1122 9.06253 22.9469 9.30812 22.8354 9.57914C22.724 9.85016 22.6686 10.141 22.6727 10.434V19.4665C22.6723 19.7301 22.5939 19.9878 22.4475 20.207C22.3011 20.4263 22.0931 20.5973 21.8498 20.6985C21.6065 20.7998 21.3386 20.8268 21.08 20.7761C20.8214 20.7255 20.5835 20.5994 20.3963 20.4138L2.27635 2.28407C2.08902 2.0975 1.96121 1.85953 1.90909 1.60026C1.85697 1.341 1.88289 1.07209 1.98356 0.827568C2.08423 0.583046 2.25514 0.373896 2.47465 0.226583C2.69415 0.0792705 2.9524 0.000419736 3.21672 0H28.9569ZM24.5599 36H34.1128C34.6139 35.9983 35.0939 35.7979 35.4476 35.4427C35.8014 35.0876 36 34.6066 36 34.1052V12.9452C35.9996 12.6815 35.9212 12.4239 35.7748 12.2046C35.6284 11.9854 35.4204 11.8144 35.1771 11.7131C34.9338 11.6119 34.666 11.5849 34.4073 11.6355C34.1487 11.6862 33.9108 11.8122 33.7236 11.9978L23.3471 22.3799C23.1389 22.5845 22.9741 22.829 22.8627 23.0989C22.7512 23.3687 22.6954 23.6583 22.6986 23.9502V34.1182C22.7019 34.6129 22.8985 35.0867 23.2463 35.4383C23.5941 35.7899 24.0655 35.9915 24.5599 36Z" fill="currentColor" />
        </symbol>
        <symbol viewBox="0 0 32 32" fill="none" id="telegram">
            <path d="M26.0517 6.8943L4.78878 15.0542C3.93314 15.4342 3.64372 16.1952 4.58193 16.6082L10.0368 18.3333L23.2259 10.2215C23.946 9.71227 24.6833 9.84808 24.0489 10.4083L12.7212 20.6152L12.3654 24.9348C12.695 25.6018 13.2985 25.6049 13.6834 25.2734L16.8174 22.3223L22.1848 26.3221C23.4314 27.0566 24.1097 26.5826 24.378 25.2364L27.8985 8.64661C28.264 6.98954 27.6407 6.25943 26.0517 6.8943Z" fill="currentColor" />
        </symbol>
        <symbol viewBox="0 0 32 32" fill="none" id="vk">
            <path d="M17.1882 24.6667C8.07727 24.6667 2.88059 18.4104 2.66406 8H7.22788C7.37778 15.641 10.7423 18.8775 13.4073 19.5449V8H17.7048V14.5899C20.3364 14.3063 23.101 11.3033 24.0338 8H28.3312C27.615 12.0707 24.6168 15.0737 22.4848 16.3083C24.6168 17.3093 28.0315 19.9286 29.3307 24.6667H24.6002C23.5842 21.4968 21.0527 19.0444 17.7048 18.7107V24.6667H17.1882Z" fill="currentColor" />
        </symbol>
    </defs>
    <use id="arrow-link-usage" xlink:href="#arrow-link" class="sprite-symbol-usage" />
    <use id="footer-dzen-usage" xlink:href="#footer-dzen" class="sprite-symbol-usage" />
    <use id="footer-telegram-usage" xlink:href="#footer-telegram" class="sprite-symbol-usage" />
    <use id="footer-vk-usage" xlink:href="#footer-vk" class="sprite-symbol-usage" />
    <use id="footer-youtube-usage" xlink:href="#footer-youtube" class="sprite-symbol-usage" />
    <use id="riverstart-usage" xlink:href="#riverstart" class="sprite-symbol-usage" />
    <use id="telegram-usage" xlink:href="#telegram" class="sprite-symbol-usage" />
    <use id="vk-usage" xlink:href="#vk" class="sprite-symbol-usage" />
</svg>